<svg xmlns="http://www.w3.org/2000/svg" xmlns:xlink="http://www.w3.org/1999/xlink" width="800" zoomAndPan="magnify" viewBox="0 0 600 194.249992" height="259" preserveAspectRatio="xMidYMid meet" version="1.0"><defs><clipPath id="b4668754e0"><path d="M 1.152344 0 L 83 0 L 83 38 L 1.152344 38 Z M 1.152344 0 " clip-rule="nonzero"/></clipPath><clipPath id="718c27ae5c"><path d="M 517 0 L 598.84375 0 L 598.84375 38 L 517 38 Z M 517 0 " clip-rule="nonzero"/></clipPath><clipPath id="d81730d907"><path d="M 517 155 L 598.84375 155 L 598.84375 193.503906 L 517 193.503906 Z M 517 155 " clip-rule="nonzero"/></clipPath><clipPath id="2501cdd0cc"><path d="M 1.152344 155 L 83 155 L 83 193.503906 L 1.152344 193.503906 Z M 1.152344 155 " clip-rule="nonzero"/></clipPath></defs><path stroke-linecap="butt" transform="matrix(0, 2.371777, -2.371777, 0, 70.288713, 5.526605)" fill="none" stroke-linejoin="miter" d="M 0.00031148 0.500532 L 19.460933 0.500532 " stroke="#0cc0df" stroke-width="1" stroke-opacity="1" stroke-miterlimit="4"/><path stroke-linecap="butt" transform="matrix(0, 2.371777, -2.371777, 0, 531.276003, 5.526605)" fill="none" stroke-linejoin="miter" d="M 0.00031148 0.500114 L 19.460933 0.500114 " stroke="#0cc0df" stroke-width="1" stroke-opacity="1" stroke-miterlimit="4"/><path stroke-linecap="butt" transform="matrix(0, 2.371777, -2.371777, 0, 465.42062, 5.526605)" fill="none" stroke-linejoin="miter" d="M 0.00031148 0.500151 L 19.460933 0.500151 " stroke="#0cc0df" stroke-width="1" stroke-opacity="1" stroke-miterlimit="4"/><path stroke-linecap="butt" transform="matrix(0, 2.371777, -2.371777, 0, 399.565333, 5.526605)" fill="none" stroke-linejoin="miter" d="M 0.00031148 0.500227 L 19.460933 0.500227 " stroke="#0cc0df" stroke-width="1" stroke-opacity="1" stroke-miterlimit="4"/><path stroke-linecap="butt" transform="matrix(0, 2.371777, -2.371777, 0, 333.710006, 5.526605)" fill="none" stroke-linejoin="miter" d="M 0.00031148 0.500287 L 19.460933 0.500287 " stroke="#0cc0df" stroke-width="1" stroke-opacity="1" stroke-miterlimit="4"/><path stroke-linecap="butt" transform="matrix(0, 2.371777, -2.371777, 0, 267.85468, 5.526605)" fill="none" stroke-linejoin="miter" d="M 0.00031148 0.500347 L 19.460933 0.500347 " stroke="#0cc0df" stroke-width="1" stroke-opacity="1" stroke-miterlimit="4"/><path stroke-linecap="butt" transform="matrix(0, 2.371777, -2.371777, 0, 201.999381, 5.526605)" fill="none" stroke-linejoin="miter" d="M 0.00031148 0.500419 L 19.460933 0.500419 " stroke="#0cc0df" stroke-width="1" stroke-opacity="1" stroke-miterlimit="4"/><path stroke-linecap="butt" transform="matrix(0, 2.371777, -2.371777, 0, 136.144013, 5.526605)" fill="none" stroke-linejoin="miter" d="M 0.00031148 0.500461 L 19.460933 0.500461 " stroke="#0cc0df" stroke-width="1" stroke-opacity="1" stroke-miterlimit="4"/><path stroke-linecap="butt" transform="matrix(2.371777, 0.00000000413953, -0.00000000413953, 2.371777, 69.107944, 4.335607)" fill="none" stroke-linejoin="miter" d="M 0.000603453 0.500819 L 194.863748 0.500818 " stroke="#000000" stroke-width="1" stroke-opacity="1" stroke-miterlimit="4"/><g clip-path="url(#b4668754e0)"><path stroke-linecap="butt" transform="matrix(2.275627, -0.668465, 0.668465, 2.275627, 3.028089, 19.043543)" fill="none" stroke-linejoin="miter" d="M 0.128652 2.389226 C 9.535407 -0.129394 18.94069 -0.130253 28.345618 2.388693 " stroke="#000000" stroke-width="1" stroke-opacity="1" stroke-miterlimit="4"/></g><g clip-path="url(#718c27ae5c)"><path stroke-linecap="butt" transform="matrix(2.279651, 0.65461, -0.65461, 2.279651, 532.566899, 0.0090337)" fill="none" stroke-linejoin="miter" d="M 0.127263 2.389278 C 9.731188 -0.130341 19.335751 -0.12954 28.940042 2.388513 " stroke="#000000" stroke-width="1" stroke-opacity="1" stroke-miterlimit="4"/></g><path stroke-linecap="butt" transform="matrix(0, -2.371777, 2.371777, 0, 529.674045, 187.501257)" fill="none" stroke-linejoin="miter" d="M 0.000529947 0.499765 L 19.461152 0.499765 " stroke="#0cc0df" stroke-width="1" stroke-opacity="1" stroke-miterlimit="4"/><path stroke-linecap="butt" transform="matrix(0, -2.371777, 2.371777, 0, 68.686743, 187.501257)" fill="none" stroke-linejoin="miter" d="M 0.000529947 0.499352 L 19.461152 0.499352 " stroke="#0cc0df" stroke-width="1" stroke-opacity="1" stroke-miterlimit="4"/><path stroke-linecap="butt" transform="matrix(0, -2.371777, 2.371777, 0, 134.542092, 187.501257)" fill="none" stroke-linejoin="miter" d="M 0.000529947 0.499402 L 19.461152 0.499402 " stroke="#0cc0df" stroke-width="1" stroke-opacity="1" stroke-miterlimit="4"/><path stroke-linecap="butt" transform="matrix(0, -2.371777, 2.371777, 0, 200.397389, 187.501257)" fill="none" stroke-linejoin="miter" d="M 0.000529947 0.499475 L 19.461152 0.499475 " stroke="#0cc0df" stroke-width="1" stroke-opacity="1" stroke-miterlimit="4"/><path stroke-linecap="butt" transform="matrix(0, -2.371777, 2.371777, 0, 266.2527, 187.501257)" fill="none" stroke-linejoin="miter" d="M 0.000529947 0.499541 L 19.461152 0.499541 " stroke="#0cc0df" stroke-width="1" stroke-opacity="1" stroke-miterlimit="4"/><path stroke-linecap="butt" transform="matrix(0, -2.371777, 2.371777, 0, 332.108056, 187.501257)" fill="none" stroke-linejoin="miter" d="M 0.000529947 0.499588 L 19.461152 0.499588 " stroke="#0cc0df" stroke-width="1" stroke-opacity="1" stroke-miterlimit="4"/><path stroke-linecap="butt" transform="matrix(0, -2.371777, 2.371777, 0, 397.963384, 187.501257)" fill="none" stroke-linejoin="miter" d="M 0.000529947 0.499648 L 19.461152 0.499648 " stroke="#0cc0df" stroke-width="1" stroke-opacity="1" stroke-miterlimit="4"/><path stroke-linecap="butt" transform="matrix(0, -2.371777, 2.371777, 0, 463.81871, 187.501257)" fill="none" stroke-linejoin="miter" d="M 0.000529947 0.499708 L 19.461152 0.499708 " stroke="#0cc0df" stroke-width="1" stroke-opacity="1" stroke-miterlimit="4"/><path stroke-linecap="butt" transform="matrix(-2.371777, 0, 0, -2.371777, 530.854774, 188.699881)" fill="none" stroke-linejoin="miter" d="M -0.000293091 0.499312 L 194.864499 0.499312 " stroke="#000000" stroke-width="1" stroke-opacity="1" stroke-miterlimit="4"/><g clip-path="url(#d81730d907)"><path stroke-linecap="butt" transform="matrix(-2.275627, 0.668465, -0.668465, -2.275627, 596.96408, 173.987997)" fill="none" stroke-linejoin="miter" d="M 0.12861 2.389341 C 9.535365 -0.129279 18.940649 -0.130138 28.345577 2.388808 " stroke="#000000" stroke-width="1" stroke-opacity="1" stroke-miterlimit="4"/></g><g clip-path="url(#2501cdd0cc)"><path stroke-linecap="butt" transform="matrix(-2.279651, -0.65461, 0.65461, -2.279651, 67.426831, 193.026116)" fill="none" stroke-linejoin="miter" d="M 0.126304 2.389551 C 9.731813 -0.130523 19.336376 -0.129723 28.940667 2.388331 " stroke="#000000" stroke-width="1" stroke-opacity="1" stroke-miterlimit="4"/></g></svg>