<svg xmlns="http://www.w3.org/2000/svg" xmlns:xlink="http://www.w3.org/1999/xlink" width="468" zoomAndPan="magnify" viewBox="0 0 351 174.749997" height="233" preserveAspectRatio="xMidYMid meet" version="1.0"><defs><clipPath id="3af62c3216"><path d="M 0.25 147 L 350.75 147 L 350.75 174.5 L 0.25 174.5 Z M 0.25 147 " clip-rule="nonzero"/></clipPath><clipPath id="94b0d47af7"><path d="M 0.25 0 L 350.75 0 L 350.75 27 L 0.25 27 Z M 0.25 0 " clip-rule="nonzero"/></clipPath></defs><g clip-path="url(#3af62c3216)"><path stroke-linecap="butt" transform="matrix(0.748929, 0, 0, 0.748929, 0.488596, 162.736009)" fill="none" stroke-linejoin="miter" d="M 0.192564 13.298069 C 155.680324 -1.765118 311.168084 -1.765118 466.655844 13.298069 " stroke="#000000" stroke-width="4" stroke-opacity="1" stroke-miterlimit="4"/></g><path stroke-linecap="butt" transform="matrix(0.748929, 0.000000000000000453, -0.000000000000000453, 0.748929, 240.174301, 57.483423)" fill="none" stroke-linejoin="miter" d="M 0.00197583 1.998917 L 47.022276 1.998917 " stroke="#000000" stroke-width="4" stroke-opacity="1" stroke-miterlimit="4"/><path stroke-linecap="butt" transform="matrix(0.748929, 0, 0, 0.748929, 240.174301, 113.707155)" fill="none" stroke-linejoin="miter" d="M 0.00197583 1.99748 L 47.022276 1.99748 " stroke="#000000" stroke-width="4" stroke-opacity="1" stroke-miterlimit="4"/><path stroke-linecap="butt" transform="matrix(0, 0.748929, -0.748929, 0, 242.989995, 58.98492)" fill="none" stroke-linejoin="miter" d="M -0.000728331 1.999933 L 75.070062 1.999933 " stroke="#000000" stroke-width="4" stroke-opacity="1" stroke-miterlimit="4"/><g clip-path="url(#94b0d47af7)"><path stroke-linecap="butt" transform="matrix(-0.748929, 0, 0, -0.748929, 349.883319, 11.444564)" fill="none" stroke-linejoin="miter" d="M 0.193661 13.299252 C 155.681421 -1.763935 311.169181 -1.763935 466.65694 13.299252 " stroke="#000000" stroke-width="4" stroke-opacity="1" stroke-miterlimit="4"/></g><path stroke-linecap="butt" transform="matrix(0.00000000130713, 0.748929, -0.748929, 0.00000000130713, 40.033395, 36.095792)" fill="none" stroke-linejoin="miter" d="M 0.0024898 0.498364 L 136.191846 0.498364 " stroke="#0cc0df" stroke-width="1" stroke-opacity="1" stroke-miterlimit="4"/><path stroke-linecap="butt" transform="matrix(0, 0.748929, -0.748929, 0, 70.140948, 36.091509)" fill="none" stroke-linejoin="miter" d="M -0.002224 0.501147 L 136.192348 0.501147 " stroke="#0cc0df" stroke-width="1" stroke-opacity="1" stroke-miterlimit="4"/><path stroke-linecap="butt" transform="matrix(0, 0.748929, -0.748929, 0, 10.270433, 36.100085)" fill="none" stroke-linejoin="miter" d="M 0.00197343 0.50192 L 136.19133 0.50192 " stroke="#0cc0df" stroke-width="1" stroke-opacity="1" stroke-miterlimit="4"/><path stroke-linecap="butt" transform="matrix(0.00000000130713, 0.748929, -0.748929, 0.00000000130713, 101.350298, 36.093199)" fill="none" stroke-linejoin="miter" d="M 0.0007361 0.499027 L 136.190092 0.499027 " stroke="#0cc0df" stroke-width="1" stroke-opacity="1" stroke-miterlimit="4"/><path stroke-linecap="butt" transform="matrix(0.00000000130713, 0.748929, -0.748929, 0.00000000130713, 134.083354, 36.089077)" fill="none" stroke-linejoin="miter" d="M 0.00102335 0.502481 L 136.19038 0.502481 " stroke="#0cc0df" stroke-width="1" stroke-opacity="1" stroke-miterlimit="4"/></svg>