<svg xmlns="http://www.w3.org/2000/svg" xmlns:xlink="http://www.w3.org/1999/xlink" width="412" zoomAndPan="magnify" viewBox="0 0 309 163.5" height="218" preserveAspectRatio="xMidYMid meet" version="1.0"><defs><clipPath id="c8db4fd86e"><path d="M 0.472656 136 L 308.527344 136 L 308.527344 163 L 0.472656 163 Z M 0.472656 136 " clip-rule="nonzero"/></clipPath><clipPath id="28b81aaaa3"><path d="M 0.472656 0 L 308.527344 0 L 308.527344 27 L 0.472656 27 Z M 0.472656 0 " clip-rule="nonzero"/></clipPath></defs><g clip-path="url(#c8db4fd86e)"><path stroke-linecap="butt" transform="matrix(0.747713, 0, 0, 0.747713, 0.679965, 152.052934)" fill="none" stroke-linejoin="miter" d="M 0.203375 12.571918 C 136.990205 -1.523139 273.777035 -1.523139 410.563866 12.571918 " stroke="#000000" stroke-width="4" stroke-opacity="1" stroke-miterlimit="4"/></g><path stroke-linecap="butt" transform="matrix(0.747713, 0.000000000000000432, -0.000000000000000432, 0.747713, 188.148658, 52.280354)" fill="none" stroke-linejoin="miter" d="M -0.000295248 2.00209 L 49.175675 2.00209 " stroke="#000000" stroke-width="4" stroke-opacity="1" stroke-miterlimit="4"/><path stroke-linecap="butt" transform="matrix(0.747713, 0, 0, 0.747713, 188.148658, 104.813644)" fill="none" stroke-linejoin="miter" d="M -0.000295248 1.999362 L 49.175675 1.999362 " stroke="#000000" stroke-width="4" stroke-opacity="1" stroke-miterlimit="4"/><path stroke-linecap="butt" transform="matrix(0, 0.747713, -0.747713, 0, 190.533323, 53.77899)" fill="none" stroke-linejoin="miter" d="M -0.00220119 1.99844 L 70.258887 1.99844 " stroke="#000000" stroke-width="4" stroke-opacity="1" stroke-miterlimit="4"/><g clip-path="url(#28b81aaaa3)"><path stroke-linecap="butt" transform="matrix(-0.747713, 0, 0, -0.747713, 307.605992, 10.888576)" fill="none" stroke-linejoin="miter" d="M 0.204446 12.572057 C 136.991277 -1.523 273.778107 -1.523 410.564938 12.572057 " stroke="#000000" stroke-width="4" stroke-opacity="1" stroke-miterlimit="4"/></g><path stroke-linecap="butt" transform="matrix(-0.00484857, 0.747698, -0.747698, -0.00484857, 38.005829, 33.825243)" fill="none" stroke-linejoin="miter" d="M 0.00186549 0.498874 L 127.455618 0.497829 " stroke="#0cc0df" stroke-width="1" stroke-opacity="1" stroke-miterlimit="4"/><path stroke-linecap="butt" transform="matrix(-0.00484857, 0.747698, -0.747698, -0.00484857, 66.137169, 33.821234)" fill="none" stroke-linejoin="miter" d="M 0.00202361 0.502128 L 127.455776 0.501083 " stroke="#0cc0df" stroke-width="1" stroke-opacity="1" stroke-miterlimit="4"/><path stroke-linecap="butt" transform="matrix(-0.00484857, 0.747698, -0.747698, -0.00484857, 10.196462, 33.829248)" fill="none" stroke-linejoin="miter" d="M 0.00172657 0.497841 L 127.455513 0.502021 " stroke="#0cc0df" stroke-width="1" stroke-opacity="1" stroke-miterlimit="4"/><path stroke-linecap="butt" transform="matrix(-0.00484857, 0.747698, -0.747698, -0.00484857, 95.297991, 33.822818)" fill="none" stroke-linejoin="miter" d="M -0.000123486 0.497808 L 127.458887 0.501953 " stroke="#0cc0df" stroke-width="1" stroke-opacity="1" stroke-miterlimit="4"/></svg>