<svg xmlns="http://www.w3.org/2000/svg" xmlns:xlink="http://www.w3.org/1999/xlink" width="320" zoomAndPan="magnify" viewBox="0 0 240 147.000002" height="196" preserveAspectRatio="xMidYMid meet" version="1.0"><defs><clipPath id="784c4a0014"><path d="M 0.8125 119 L 239.1875 119 L 239.1875 146.007812 L 0.8125 146.007812 Z M 0.8125 119 " clip-rule="nonzero"/></clipPath><clipPath id="7a8eabbbb9"><path d="M 0.8125 0 L 239.1875 0 L 239.1875 27 L 0.8125 27 Z M 0.8125 0 " clip-rule="nonzero"/></clipPath></defs><g clip-path="url(#784c4a0014)"><path stroke-linecap="butt" transform="matrix(0.744932, 0, 0, 0.744932, 0.972638, 135.093819)" fill="none" stroke-linejoin="miter" d="M 0.262212 12.574454 C 106.610997 -1.526028 212.954537 -1.526028 319.298077 12.574454 " stroke="#000000" stroke-width="4" stroke-opacity="1" stroke-miterlimit="4"/></g><path stroke-linecap="butt" transform="matrix(0.744932, 0.000000000000000852, -0.000000000000000852, 0.744932, 155.732396, 45.309867)" fill="none" stroke-linejoin="miter" d="M -0.0025867 2.001409 L 49.718787 2.001409 " stroke="#000000" stroke-width="4" stroke-opacity="1" stroke-miterlimit="4"/><path stroke-linecap="butt" transform="matrix(0.744932, 0, 0, 0.744932, 155.732396, 97.647769)" fill="none" stroke-linejoin="miter" d="M -0.0025867 1.998772 L 49.718787 1.998772 " stroke="#000000" stroke-width="4" stroke-opacity="1" stroke-miterlimit="4"/><path stroke-linecap="butt" transform="matrix(0, 0.744932, -0.744932, 0, 158.11807, 46.802928)" fill="none" stroke-linejoin="miter" d="M 0.00236194 1.999059 L 70.258316 1.999059 " stroke="#000000" stroke-width="4" stroke-opacity="1" stroke-miterlimit="4"/><g clip-path="url(#7a8eabbbb9)"><path stroke-linecap="butt" transform="matrix(-0.744932, 0, 0, -0.744932, 238.863272, 10.836446)" fill="none" stroke-linejoin="miter" d="M 0.262176 12.575229 C 106.61096 -1.525253 212.954501 -1.525253 319.298041 12.575229 " stroke="#000000" stroke-width="4" stroke-opacity="1" stroke-miterlimit="4"/></g><path stroke-linecap="butt" transform="matrix(-0.00483054, 0.744917, -0.744917, -0.00483054, 50.4166, 26.923396)" fill="none" stroke-linejoin="miter" d="M 0.00121113 0.501566 L 127.458809 0.498334 " stroke="#0cc0df" stroke-width="1" stroke-opacity="1" stroke-miterlimit="4"/><path stroke-linecap="butt" transform="matrix(-0.00483054, 0.744917, -0.744917, -0.00483054, 78.443315, 26.9194)" fill="none" stroke-linejoin="miter" d="M 0.00132573 0.500721 L 127.458924 0.497489 " stroke="#0cc0df" stroke-width="1" stroke-opacity="1" stroke-miterlimit="4"/><path stroke-linecap="butt" transform="matrix(-0.00483054, 0.744917, -0.744917, -0.00483054, 22.710667, 26.927386)" fill="none" stroke-linejoin="miter" d="M 0.00107397 0.497798 L 127.458706 0.499809 " stroke="#0cc0df" stroke-width="1" stroke-opacity="1" stroke-miterlimit="4"/></svg>