<?xml version="1.0" encoding="UTF-8" standalone="no"?>
<svg width="352.778mm" height="246.944mm"
 viewBox="0 0 1000 700"
 xmlns="http://www.w3.org/2000/svg" xmlns:xlink="http://www.w3.org/1999/xlink"  version="1.2" baseProfile="tiny">
<title>MPRUN</title>
<desc>Generated with Qt</desc>
<defs>
</defs>
<g fill="none" stroke="black" stroke-width="1" fill-rule="evenodd" stroke-linecap="square" stroke-linejoin="bevel" >

<g fill="none" stroke="#000000" stroke-opacity="1" stroke-width="1" stroke-linecap="square" stroke-linejoin="bevel" transform="matrix(1,0,0,1,0,0)"
font-family="MS Shell Dlg 2" font-size="7.8" font-weight="400" font-style="normal" 
>
</g>

<g fill="none" stroke="#000000" stroke-opacity="1" stroke-width="1" stroke-linecap="square" stroke-linejoin="bevel" transform="matrix(1,0,0,1,0,0)"
font-family="MS Shell Dlg 2" font-size="7.8" font-weight="400" font-style="normal" 
>
</g>

<g fill="#606060" fill-opacity="1" stroke="none" transform="matrix(1,0,0,1,0,0)"
font-family="MS Shell Dlg 2" font-size="7.8" font-weight="400" font-style="normal" 
>
<rect x="0" y="0" width="1000" height="700"/>
</g>

<g fill="none" stroke="#000000" stroke-opacity="1" stroke-width="1" stroke-linecap="square" stroke-linejoin="bevel" transform="matrix(1,0,0,1,0,0)"
font-family="MS Shell Dlg 2" font-size="7.8" font-weight="400" font-style="normal" 
>
</g>

<g fill="none" stroke="#000000" stroke-opacity="1" stroke-width="1" stroke-linecap="square" stroke-linejoin="bevel" transform="matrix(1,0,0,1,0,0)"
font-family="MS Shell Dlg 2" font-size="7.8" font-weight="400" font-style="normal" 
>
</g>

<g fill="#ffffff" fill-opacity="1" stroke="#ffffff" stroke-opacity="1" stroke-width="1" stroke-linecap="square" stroke-linejoin="miter" stroke-miterlimit="2" transform="matrix(1,0,0,1,0,0)"
font-family="MS Shell Dlg 2" font-size="7.8" font-weight="400" font-style="normal" 
>
<rect vector-effect="non-scaling-stroke" x="0" y="0" width="1000" height="700"/>
</g>

<g fill="none" stroke="#000000" stroke-opacity="1" stroke-width="1" stroke-linecap="square" stroke-linejoin="bevel" transform="matrix(1,0,0,1,0,0)"
font-family="MS Shell Dlg 2" font-size="7.8" font-weight="400" font-style="normal" 
>
</g>

<g fill="none" stroke="#000000" stroke-opacity="1" stroke-width="1" stroke-linecap="square" stroke-linejoin="bevel" transform="matrix(1,0,0,1,-37,68)"
font-family="MS Shell Dlg 2" font-size="7.8" font-weight="400" font-style="normal" 
>
</g>

<g fill="#000000" fill-opacity="0" stroke="#ff0000" stroke-opacity="1" stroke-dasharray="80,40,20,40,20,40" stroke-dashoffset="0" stroke-width="20" stroke-linecap="butt" stroke-linejoin="bevel" transform="matrix(1,0,0,1,-37,68)"
font-family="MS Shell Dlg 2" font-size="7.8" font-weight="400" font-style="normal" 
>
<path vector-effect="none" fill-rule="evenodd" d="M175.708,279.557 C189.136,267.935 211.404,248.192 217.74,243.077 C225.666,237.868 229.358,235.73 237.628,231.327 C247.125,226.639 258.07,221.889 269.766,217.399 C275.864,215.349 282.345,213.483 289.056,211.833 C295.868,210.371 302.506,209.292 308.968,208.464 C321.092,207.246 332.343,206.508 341.588,206.316 C345.604,206.436 349.094,206.796 353.095,207.377 C357.748,208.392 369.148,211.444 376.158,213.743 C384.32,216.677 403.546,223.976 424.974,232.599 C435.578,237.135 455.252,246.037 464.02,250.239 C478.031,257.62 483.442,260.853 491.338,266.202 C496.584,270.42 501.239,274.491 507.974,279.49 C512.541,282.584 523.766,289.68 537.268,297.625 C551.053,305.695 565.045,313.451 571.894,316.982 C579.002,320.204 586.113,323.056 593.042,325.396 C599.907,327.238 606.483,328.455 612.711,329.258 C618.917,329.883 631.176,330.384 655.526,330.379 C679.33,330.151 687.62,329.881 696.116,329.268 C704.573,328.237 708.46,327.612 715.402,326.268 C718.551,325.48 724.492,323.821 727.091,322.895 C732.931,320.331 739.819,316.636 743.55,314.422 C751.544,309.089 755.705,306.014 763.738,299.46 C774.273,289.562 779.627,284.034 784.748,277.983 "/>
</g>

<g fill="none" stroke="#000000" stroke-opacity="1" stroke-width="1" stroke-linecap="square" stroke-linejoin="bevel" transform="matrix(1,0,0,1,-37,68)"
font-family="MS Shell Dlg 2" font-size="7.8" font-weight="400" font-style="normal" 
>
</g>

<g fill="none" stroke="#000000" stroke-opacity="1" stroke-width="1" stroke-linecap="square" stroke-linejoin="bevel" transform="matrix(1,0,0,1,777,209)"
font-family="MS Shell Dlg 2" font-size="7.8" font-weight="400" font-style="normal" 
>
</g>

<g fill="none" stroke="#000000" stroke-opacity="1" stroke-width="1" stroke-linecap="square" stroke-linejoin="bevel" transform="matrix(1,0,0,1,777,209)"
font-family="MS Shell Dlg 2" font-size="7.8" font-weight="400" font-style="normal" 
>
</g>

<g fill="none" stroke="#000000" stroke-opacity="1" stroke-width="1" stroke-linecap="square" stroke-linejoin="bevel" transform="matrix(1,0,0,1,777,209)"
font-family="MS Shell Dlg 2" font-size="7.8" font-weight="400" font-style="normal" 
>
<text fill="#000000" fill-opacity="1" stroke="none" xml:space="preserve" x="4" y="24" font-family="MS Shell Dlg 2" font-size="20" font-weight="400" font-style="normal" 
 >Square Cap</text>
</g>

<g fill="none" stroke="#000000" stroke-opacity="1" stroke-width="1" stroke-linecap="square" stroke-linejoin="bevel" transform="matrix(1,0,0,1,777,209)"
font-family="MS Shell Dlg 2" font-size="7.8" font-weight="400" font-style="normal" 
>
</g>

<g fill="none" stroke="#000000" stroke-opacity="1" stroke-width="1" stroke-linecap="square" stroke-linejoin="bevel" transform="matrix(1,0,0,1,0,0)"
font-family="MS Shell Dlg 2" font-size="7.8" font-weight="400" font-style="normal" 
>
</g>

<g fill="none" stroke="#000000" stroke-opacity="1" stroke-width="1" stroke-linecap="square" stroke-linejoin="bevel" transform="matrix(1,0,0,1,777,209)"
font-family="MS Shell Dlg 2" font-size="7.8" font-weight="400" font-style="normal" 
>
</g>

<g fill="none" stroke="#000000" stroke-opacity="1" stroke-width="1" stroke-linecap="square" stroke-linejoin="bevel" transform="matrix(1,0,0,1,777,209)"
font-family="MS Shell Dlg 2" font-size="7.8" font-weight="400" font-style="normal" 
>
</g>

<g fill="none" stroke="#000000" stroke-opacity="1" stroke-width="1" stroke-linecap="square" stroke-linejoin="bevel" transform="matrix(1,0,0,1,777,209)"
font-family="MS Shell Dlg 2" font-size="7.8" font-weight="400" font-style="normal" 
>
</g>

<g fill="none" stroke="#000000" stroke-opacity="1" stroke-width="1" stroke-linecap="square" stroke-linejoin="bevel" transform="matrix(1,0,0,1,780,321)"
font-family="MS Shell Dlg 2" font-size="7.8" font-weight="400" font-style="normal" 
>
</g>

<g fill="none" stroke="#000000" stroke-opacity="1" stroke-width="1" stroke-linecap="square" stroke-linejoin="bevel" transform="matrix(1,0,0,1,780,321)"
font-family="MS Shell Dlg 2" font-size="7.8" font-weight="400" font-style="normal" 
>
</g>

<g fill="none" stroke="#000000" stroke-opacity="1" stroke-width="1" stroke-linecap="square" stroke-linejoin="bevel" transform="matrix(1,0,0,1,780,321)"
font-family="MS Shell Dlg 2" font-size="7.8" font-weight="400" font-style="normal" 
>
<text fill="#000000" fill-opacity="1" stroke="none" xml:space="preserve" x="4" y="24" font-family="MS Shell Dlg 2" font-size="20" font-weight="400" font-style="normal" 
 >Flat Cap</text>
</g>

<g fill="none" stroke="#000000" stroke-opacity="1" stroke-width="1" stroke-linecap="square" stroke-linejoin="bevel" transform="matrix(1,0,0,1,780,321)"
font-family="MS Shell Dlg 2" font-size="7.8" font-weight="400" font-style="normal" 
>
</g>

<g fill="none" stroke="#000000" stroke-opacity="1" stroke-width="1" stroke-linecap="square" stroke-linejoin="bevel" transform="matrix(1,0,0,1,0,0)"
font-family="MS Shell Dlg 2" font-size="7.8" font-weight="400" font-style="normal" 
>
</g>

<g fill="none" stroke="#000000" stroke-opacity="1" stroke-width="1" stroke-linecap="square" stroke-linejoin="bevel" transform="matrix(1,0,0,1,780,321)"
font-family="MS Shell Dlg 2" font-size="7.8" font-weight="400" font-style="normal" 
>
</g>

<g fill="none" stroke="#000000" stroke-opacity="1" stroke-width="1" stroke-linecap="square" stroke-linejoin="bevel" transform="matrix(1,0,0,1,780,321)"
font-family="MS Shell Dlg 2" font-size="7.8" font-weight="400" font-style="normal" 
>
</g>

<g fill="none" stroke="#000000" stroke-opacity="1" stroke-width="1" stroke-linecap="square" stroke-linejoin="bevel" transform="matrix(1,0,0,1,780,321)"
font-family="MS Shell Dlg 2" font-size="7.8" font-weight="400" font-style="normal" 
>
</g>

<g fill="none" stroke="#000000" stroke-opacity="1" stroke-width="1" stroke-linecap="square" stroke-linejoin="bevel" transform="matrix(1,0,0,1,-37,190)"
font-family="MS Shell Dlg 2" font-size="7.8" font-weight="400" font-style="normal" 
>
</g>

<g fill="#000000" fill-opacity="0" stroke="#ff0000" stroke-opacity="1" stroke-dasharray="80,40,20,40,20,40" stroke-dashoffset="0" stroke-width="20" stroke-linecap="round" stroke-linejoin="miter" stroke-miterlimit="2" transform="matrix(1,0,0,1,-37,190)"
font-family="MS Shell Dlg 2" font-size="7.8" font-weight="400" font-style="normal" 
>
<path vector-effect="none" fill-rule="evenodd" d="M175.708,279.557 C189.136,267.935 211.404,248.192 217.74,243.077 C225.666,237.868 229.358,235.73 237.628,231.327 C247.125,226.639 258.07,221.889 269.766,217.399 C275.864,215.349 282.345,213.483 289.056,211.833 C295.868,210.371 302.506,209.292 308.968,208.464 C321.092,207.246 332.343,206.508 341.588,206.316 C345.604,206.436 349.094,206.796 353.095,207.377 C357.748,208.392 369.148,211.444 376.158,213.743 C384.32,216.677 403.546,223.976 424.974,232.599 C435.578,237.135 455.252,246.037 464.02,250.239 C478.031,257.62 483.442,260.853 491.338,266.202 C496.584,270.42 501.239,274.491 507.974,279.49 C512.541,282.584 523.766,289.68 537.268,297.625 C551.053,305.695 565.045,313.451 571.894,316.982 C579.002,320.204 586.113,323.056 593.042,325.396 C599.907,327.238 606.483,328.455 612.711,329.258 C618.917,329.883 631.176,330.384 655.526,330.379 C679.33,330.151 687.62,329.881 696.116,329.268 C704.573,328.237 708.46,327.612 715.402,326.268 C718.551,325.48 724.492,323.821 727.091,322.895 C732.931,320.331 739.819,316.636 743.55,314.422 C751.544,309.089 755.705,306.014 763.738,299.46 C774.273,289.562 779.627,284.034 784.748,277.983 "/>
</g>

<g fill="none" stroke="#000000" stroke-opacity="1" stroke-width="1" stroke-linecap="square" stroke-linejoin="bevel" transform="matrix(1,0,0,1,-37,190)"
font-family="MS Shell Dlg 2" font-size="7.8" font-weight="400" font-style="normal" 
>
</g>

<g fill="none" stroke="#000000" stroke-opacity="1" stroke-width="1" stroke-linecap="square" stroke-linejoin="bevel" transform="matrix(1,0,0,1,-34,-43)"
font-family="MS Shell Dlg 2" font-size="7.8" font-weight="400" font-style="normal" 
>
</g>

<g fill="#000000" fill-opacity="0" stroke="#ff0000" stroke-opacity="1" stroke-dasharray="80,40,20,40,20,40" stroke-dashoffset="0" stroke-width="20" stroke-linecap="square" stroke-linejoin="bevel" transform="matrix(1,0,0,1,-34,-43)"
font-family="MS Shell Dlg 2" font-size="7.8" font-weight="400" font-style="normal" 
>
<path vector-effect="none" fill-rule="evenodd" d="M175.708,279.557 C189.136,267.935 211.404,248.192 217.74,243.077 C225.666,237.868 229.358,235.73 237.628,231.327 C247.125,226.639 258.07,221.889 269.766,217.399 C275.864,215.349 282.345,213.483 289.056,211.833 C295.868,210.371 302.506,209.292 308.968,208.464 C321.092,207.246 332.343,206.508 341.588,206.316 C345.604,206.436 349.094,206.796 353.095,207.377 C357.748,208.392 369.148,211.444 376.158,213.743 C384.32,216.677 403.546,223.976 424.974,232.599 C435.578,237.135 455.252,246.037 464.02,250.239 C478.031,257.62 483.442,260.853 491.338,266.202 C496.584,270.42 501.239,274.491 507.974,279.49 C512.541,282.584 523.766,289.68 537.268,297.625 C551.053,305.695 565.045,313.451 571.894,316.982 C579.002,320.204 586.113,323.056 593.042,325.396 C599.907,327.238 606.483,328.455 612.711,329.258 C618.917,329.883 631.176,330.384 655.526,330.379 C679.33,330.151 687.62,329.881 696.116,329.268 C704.573,328.237 708.46,327.612 715.402,326.268 C718.551,325.48 724.492,323.821 727.091,322.895 C732.931,320.331 739.819,316.636 743.55,314.422 C751.544,309.089 755.705,306.014 763.738,299.46 C774.273,289.562 779.627,284.034 784.748,277.983 "/>
</g>

<g fill="none" stroke="#000000" stroke-opacity="1" stroke-width="1" stroke-linecap="square" stroke-linejoin="bevel" transform="matrix(1,0,0,1,-34,-43)"
font-family="MS Shell Dlg 2" font-size="7.8" font-weight="400" font-style="normal" 
>
</g>

<g fill="none" stroke="#000000" stroke-opacity="1" stroke-width="1" stroke-linecap="square" stroke-linejoin="bevel" transform="matrix(1,0,0,1,778,446)"
font-family="MS Shell Dlg 2" font-size="7.8" font-weight="400" font-style="normal" 
>
</g>

<g fill="none" stroke="#000000" stroke-opacity="1" stroke-width="1" stroke-linecap="square" stroke-linejoin="bevel" transform="matrix(1,0,0,1,778,446)"
font-family="MS Shell Dlg 2" font-size="7.8" font-weight="400" font-style="normal" 
>
</g>

<g fill="none" stroke="#000000" stroke-opacity="1" stroke-width="1" stroke-linecap="square" stroke-linejoin="bevel" transform="matrix(1,0,0,1,778,446)"
font-family="MS Shell Dlg 2" font-size="7.8" font-weight="400" font-style="normal" 
>
<text fill="#000000" fill-opacity="1" stroke="none" xml:space="preserve" x="4" y="24" font-family="MS Shell Dlg 2" font-size="20" font-weight="400" font-style="normal" 
 >Round Cap</text>
</g>

<g fill="none" stroke="#000000" stroke-opacity="1" stroke-width="1" stroke-linecap="square" stroke-linejoin="bevel" transform="matrix(1,0,0,1,778,446)"
font-family="MS Shell Dlg 2" font-size="7.8" font-weight="400" font-style="normal" 
>
</g>

<g fill="none" stroke="#000000" stroke-opacity="1" stroke-width="1" stroke-linecap="square" stroke-linejoin="bevel" transform="matrix(1,0,0,1,0,0)"
font-family="MS Shell Dlg 2" font-size="7.8" font-weight="400" font-style="normal" 
>
</g>

<g fill="none" stroke="#000000" stroke-opacity="1" stroke-width="1" stroke-linecap="square" stroke-linejoin="bevel" transform="matrix(1,0,0,1,778,446)"
font-family="MS Shell Dlg 2" font-size="7.8" font-weight="400" font-style="normal" 
>
</g>

<g fill="none" stroke="#000000" stroke-opacity="1" stroke-width="1" stroke-linecap="square" stroke-linejoin="bevel" transform="matrix(1,0,0,1,778,446)"
font-family="MS Shell Dlg 2" font-size="7.8" font-weight="400" font-style="normal" 
>
</g>

<g fill="none" stroke="#000000" stroke-opacity="1" stroke-width="1" stroke-linecap="square" stroke-linejoin="bevel" transform="matrix(1,0,0,1,778,446)"
font-family="MS Shell Dlg 2" font-size="7.8" font-weight="400" font-style="normal" 
>
</g>

<g fill="none" stroke="#000000" stroke-opacity="1" stroke-width="1" stroke-linecap="square" stroke-linejoin="bevel" transform="matrix(1,0,0,1,0,0)"
font-family="MS Shell Dlg 2" font-size="7.8" font-weight="400" font-style="normal" 
>
</g>
</g>
</svg>
