<!DOCTYPE svg PUBLIC "-//W3C//DTD SVG 1.1//EN" "http://www.w3.org/Graphics/SVG/1.1/DTD/svg11.dtd">
<!-- Uploaded to: SVG Repo, www.svgrepo.com, Transformed by: SVG Repo Mixer Tools -->
<svg width="226px" height="226px" viewBox="0 0 512 512" xmlns="http://www.w3.org/2000/svg" fill="#c2c2c2" transform="rotate(0)">
<g id="SVGRepo_bgCarrier" stroke-width="0"/>
<g id="SVGRepo_tracerCarrier" stroke-linecap="round" stroke-linejoin="round" stroke="#CCCCCC" stroke-width="3.072"/>
<g id="SVGRepo_iconCarrier"> <polygon fill="var(--ci-primary-color, #c2c2c2)" points="176 184 208 184 208 136 304 136 304 368 264 368 264 400 408 400 408 368 368 368 368 136 464 136 464 184 496 184 496 104 176 104 176 184" class="ci-primary"/> <polygon fill="var(--ci-primary-color, #c2c2c2)" points="16 280 48 280 48 248 104 248 104 400 72 400 72 432 184 432 184 400 152 400 152 248 216 248 216 280 248 280 248 216 16 216 16 280" class="ci-primary"/> </g>
</svg>